<svg xmlns="http://www.w3.org/2000/svg" xmlns:xlink="http://www.w3.org/1999/xlink" width="120" zoomAndPan="magnify" viewBox="0 0 90 30.000001" height="40" preserveAspectRatio="xMidYMid meet" version="1.0"><defs><g/><clipPath id="afa78939f9"><path d="M 56.734375 14.515625 L 62.542969 14.515625 L 62.542969 20.324219 L 56.734375 20.324219 Z M 56.734375 14.515625 " clip-rule="nonzero"/></clipPath><clipPath id="b8cd88b6d3"><path d="M 57 15 L 62.542969 15 L 62.542969 20 L 57 20 Z M 57 15 " clip-rule="nonzero"/></clipPath><clipPath id="fbb79ed776"><path d="M 19 2.902344 L 28 2.902344 L 28 9 L 19 9 Z M 19 2.902344 " clip-rule="nonzero"/></clipPath><clipPath id="4c23ccd7b2"><path d="M 31 7 L 37.472656 7 L 37.472656 14 L 31 14 Z M 31 7 " clip-rule="nonzero"/></clipPath><clipPath id="6b0d67ec21"><path d="M 12.070312 13 L 33 13 L 33 26.128906 L 12.070312 26.128906 Z M 12.070312 13 " clip-rule="nonzero"/></clipPath></defs><g clip-path="url(#afa78939f9)"><path fill="#ffffff" d="M 62.871094 17.582031 C 62.871094 17.992188 62.792969 18.382812 62.636719 18.757812 C 62.480469 19.132812 62.261719 19.464844 61.972656 19.753906 C 61.683594 20.039062 61.351562 20.261719 60.976562 20.417969 C 60.601562 20.574219 60.210938 20.652344 59.804688 20.652344 C 59.394531 20.652344 59.003906 20.574219 58.628906 20.417969 C 58.253906 20.261719 57.921875 20.039062 57.632812 19.753906 C 57.347656 19.464844 57.125 19.132812 56.96875 18.757812 C 56.8125 18.382812 56.734375 17.992188 56.734375 17.582031 C 56.734375 17.175781 56.8125 16.785156 56.96875 16.410156 C 57.125 16.035156 57.347656 15.703125 57.632812 15.414062 C 57.921875 15.128906 58.253906 14.90625 58.628906 14.75 C 59.003906 14.59375 59.394531 14.515625 59.804688 14.515625 C 60.210938 14.515625 60.601562 14.59375 60.976562 14.75 C 61.351562 14.90625 61.683594 15.128906 61.972656 15.414062 C 62.261719 15.703125 62.480469 16.035156 62.636719 16.410156 C 62.792969 16.785156 62.871094 17.175781 62.871094 17.582031 Z M 62.871094 17.582031 " fill-opacity="1" fill-rule="nonzero"/></g><g clip-path="url(#b8cd88b6d3)"><path fill="#07afed" d="M 59.804688 15.964844 C 59.777344 15.964844 58.78125 16.429688 58.660156 16.484375 C 58.46875 16.574219 58.285156 16.667969 58.09375 16.75 L 57.542969 17.011719 L 57.945312 17.203125 L 57.945312 17.664062 C 57.910156 17.738281 57.84375 17.722656 57.847656 17.875 C 57.847656 17.972656 57.886719 18.03125 57.957031 18.0625 L 57.824219 19.203125 L 58.152344 19.203125 L 58.019531 18.0625 C 58.089844 18.023438 58.132812 17.984375 58.132812 17.875 C 58.136719 17.722656 58.066406 17.742188 58.035156 17.664062 L 58.035156 17.242188 L 58.269531 17.355469 C 58.410156 17.421875 58.390625 17.40625 58.546875 17.371094 C 59.453125 17.15625 60.164062 17.15625 61.070312 17.375 C 61.222656 17.410156 61.214844 17.414062 61.347656 17.351562 L 62.0625 17.011719 Z M 57.976562 18.96875 C 58.015625 18.96875 58.046875 19 58.046875 19.039062 C 58.046875 19.078125 58.015625 19.109375 57.976562 19.109375 C 57.9375 19.109375 57.90625 19.078125 57.90625 19.039062 C 57.90625 19 57.9375 18.96875 57.976562 18.96875 Z M 57.976562 18.96875 " fill-opacity="1" fill-rule="evenodd"/></g><path fill="#07afed" d="M 58.464844 18.574219 C 59.273438 18.300781 60.332031 18.296875 61.148438 18.578125 L 61.144531 17.449219 L 60.503906 17.328125 C 60.269531 17.296875 60.046875 17.28125 59.804688 17.28125 C 59.554688 17.28125 59.328125 17.296875 59.089844 17.332031 L 58.460938 17.449219 Z M 58.464844 18.574219 " fill-opacity="1" fill-rule="evenodd"/><g fill="#ffffff" fill-opacity="1"><g transform="translate(30.599693, 21.069964)"><g><path d="M 5.78125 -6.34375 L 5.78125 0 L 4.453125 0 L 4.453125 -2.84375 L 1.96875 -2.84375 L 1.96875 0 L 0.640625 0 L 0.640625 -6.34375 L 1.96875 -6.34375 L 1.96875 -3.9375 L 4.453125 -3.9375 L 4.453125 -6.34375 Z M 5.78125 -6.34375 "/></g></g></g><g fill="#ffffff" fill-opacity="1"><g transform="translate(37.027647, 21.069964)"><g><path d="M 1.6875 -3.171875 C 1.6875 -2.429688 1.847656 -1.875 2.171875 -1.5 C 2.503906 -1.132812 2.925781 -0.953125 3.4375 -0.953125 C 3.9375 -0.953125 4.34375 -1.144531 4.65625 -1.53125 C 4.976562 -1.914062 5.140625 -2.460938 5.140625 -3.171875 C 5.140625 -3.890625 4.984375 -4.4375 4.671875 -4.8125 C 4.359375 -5.195312 3.941406 -5.390625 3.421875 -5.390625 C 2.898438 -5.390625 2.476562 -5.195312 2.15625 -4.8125 C 1.84375 -4.4375 1.6875 -3.890625 1.6875 -3.171875 Z M 0.359375 -3.171875 C 0.359375 -4.265625 0.640625 -5.09375 1.203125 -5.65625 C 1.773438 -6.226562 2.507812 -6.515625 3.40625 -6.515625 C 4.300781 -6.515625 5.035156 -6.234375 5.609375 -5.671875 C 6.179688 -5.109375 6.46875 -4.273438 6.46875 -3.171875 C 6.46875 -2.097656 6.1875 -1.269531 5.625 -0.6875 C 5.0625 -0.113281 4.328125 0.171875 3.421875 0.171875 C 2.554688 0.171875 1.828125 -0.0976562 1.234375 -0.640625 C 0.648438 -1.191406 0.359375 -2.035156 0.359375 -3.171875 Z M 0.359375 -3.171875 "/></g></g></g><g fill="#ffffff" fill-opacity="1"><g transform="translate(43.865989, 21.069964)"><g><path d="M 5.75 -2.21875 C 5.75 -1.4375 5.53125 -0.84375 5.09375 -0.4375 C 4.664062 -0.03125 4.015625 0.171875 3.140625 0.171875 C 2.367188 0.171875 1.753906 -0.0195312 1.296875 -0.40625 C 0.847656 -0.800781 0.625 -1.382812 0.625 -2.15625 L 0.625 -6.34375 L 1.984375 -6.34375 L 1.984375 -2.234375 C 1.984375 -1.816406 2.082031 -1.5 2.28125 -1.28125 C 2.488281 -1.0625 2.785156 -0.953125 3.171875 -0.953125 C 3.554688 -0.953125 3.851562 -1.050781 4.0625 -1.25 C 4.28125 -1.457031 4.390625 -1.765625 4.390625 -2.171875 L 4.390625 -6.34375 L 5.75 -6.34375 Z M 5.75 -2.21875 "/></g></g></g><g fill="#ffffff" fill-opacity="1"><g transform="translate(50.242104, 21.069964)"><g><path d="M 1.640625 -1.953125 C 1.640625 -1.640625 1.753906 -1.390625 1.984375 -1.203125 C 2.222656 -1.015625 2.554688 -0.921875 2.984375 -0.921875 C 3.410156 -0.921875 3.738281 -0.988281 3.96875 -1.125 C 4.195312 -1.269531 4.3125 -1.476562 4.3125 -1.75 C 4.3125 -1.914062 4.25 -2.054688 4.125 -2.171875 C 4.007812 -2.285156 3.734375 -2.394531 3.296875 -2.5 L 2.21875 -2.75 C 1.539062 -2.914062 1.078125 -3.132812 0.828125 -3.40625 C 0.585938 -3.6875 0.46875 -4.070312 0.46875 -4.5625 C 0.46875 -5.132812 0.671875 -5.601562 1.078125 -5.96875 C 1.484375 -6.332031 2.09375 -6.515625 2.90625 -6.515625 C 3.71875 -6.515625 4.332031 -6.3125 4.75 -5.90625 C 5.164062 -5.5 5.375 -5.019531 5.375 -4.46875 L 4.109375 -4.46875 C 4.078125 -4.78125 3.953125 -5.015625 3.734375 -5.171875 C 3.523438 -5.335938 3.21875 -5.421875 2.8125 -5.421875 C 2.476562 -5.421875 2.207031 -5.351562 2 -5.21875 C 1.800781 -5.082031 1.703125 -4.894531 1.703125 -4.65625 C 1.703125 -4.5 1.742188 -4.363281 1.828125 -4.25 C 1.921875 -4.144531 2.066406 -4.070312 2.265625 -4.03125 L 3.96875 -3.609375 C 4.582031 -3.453125 5.003906 -3.234375 5.234375 -2.953125 C 5.460938 -2.679688 5.578125 -2.332031 5.578125 -1.90625 C 5.578125 -1.21875 5.335938 -0.695312 4.859375 -0.34375 C 4.378906 0 3.785156 0.171875 3.078125 0.171875 C 2.160156 0.171875 1.476562 -0.0195312 1.03125 -0.40625 C 0.582031 -0.800781 0.359375 -1.316406 0.359375 -1.953125 Z M 1.640625 -1.953125 "/></g></g></g><g fill="#ffffff" fill-opacity="1"><g transform="translate(63.442034, 21.069964)"><g><path d="M 1.96875 0 L 0.640625 0 L 0.640625 -6.34375 L 5.171875 -6.34375 L 5.171875 -5.21875 L 1.96875 -5.21875 L 1.96875 -3.796875 L 4.765625 -3.796875 L 4.765625 -2.671875 L 1.96875 -2.671875 Z M 1.96875 0 "/></g></g></g><g fill="#ffffff" fill-opacity="1"><g transform="translate(68.802984, 21.069964)"><g><path d="M 2.296875 -2.40625 L 3.921875 -2.40625 L 3.125 -4.921875 L 3.109375 -4.921875 Z M 1.5 0 L 0.109375 0 L 2.375 -6.34375 L 3.90625 -6.34375 L 6.140625 0 L 4.703125 0 L 4.296875 -1.3125 L 1.953125 -1.3125 Z M 1.5 0 "/></g></g></g><g fill="#ffffff" fill-opacity="1"><g transform="translate(75.053824, 21.069964)"><g><path d="M 1.96875 0 L 0.640625 0 L 0.640625 -6.34375 L 1.96875 -6.34375 Z M 1.96875 0 "/></g></g></g><g fill="#ffffff" fill-opacity="1"><g transform="translate(30.371466, 23.346103)"><g><path d="M 0.75 -0.75 L 1.375 -0.75 L 1.375 0 L 1.25 0 L 1.203125 -0.1875 C 1.148438 -0.101562 1.082031 -0.046875 1 -0.015625 C 0.914062 0.015625 0.828125 0.03125 0.734375 0.03125 C 0.597656 0.03125 0.484375 0.00390625 0.390625 -0.046875 C 0.296875 -0.109375 0.222656 -0.191406 0.171875 -0.296875 C 0.117188 -0.410156 0.09375 -0.550781 0.09375 -0.71875 C 0.09375 -0.925781 0.148438 -1.097656 0.265625 -1.234375 C 0.390625 -1.378906 0.550781 -1.453125 0.75 -1.453125 C 0.90625 -1.453125 1.039062 -1.40625 1.15625 -1.3125 C 1.269531 -1.226562 1.335938 -1.117188 1.359375 -0.984375 L 1.171875 -0.984375 C 1.148438 -1.078125 1.101562 -1.148438 1.03125 -1.203125 C 0.957031 -1.253906 0.863281 -1.28125 0.75 -1.28125 C 0.601562 -1.28125 0.488281 -1.226562 0.40625 -1.125 C 0.320312 -1.019531 0.28125 -0.878906 0.28125 -0.703125 C 0.28125 -0.503906 0.320312 -0.359375 0.40625 -0.265625 C 0.488281 -0.171875 0.601562 -0.125 0.75 -0.125 C 0.84375 -0.125 0.921875 -0.140625 0.984375 -0.171875 C 1.054688 -0.210938 1.109375 -0.265625 1.140625 -0.328125 C 1.179688 -0.398438 1.203125 -0.488281 1.203125 -0.59375 L 0.75 -0.59375 Z M 0.75 -0.75 "/></g></g><g transform="translate(31.894937, 23.346103)"><g><path d="M 0.125 -1.03125 L 0.296875 -1.03125 L 0.296875 -0.34375 C 0.296875 -0.269531 0.3125 -0.210938 0.34375 -0.171875 C 0.375 -0.140625 0.425781 -0.125 0.5 -0.125 C 0.582031 -0.125 0.648438 -0.15625 0.703125 -0.21875 C 0.753906 -0.28125 0.78125 -0.363281 0.78125 -0.46875 L 0.78125 -1.03125 L 0.953125 -1.03125 L 0.953125 0 L 0.78125 0 L 0.78125 -0.15625 C 0.71875 -0.03125 0.609375 0.03125 0.453125 0.03125 C 0.359375 0.03125 0.28125 0.00390625 0.21875 -0.046875 C 0.15625 -0.0976562 0.125 -0.179688 0.125 -0.296875 Z M 0.125 -1.03125 "/></g></g><g transform="translate(32.97748, 23.346103)"><g><path d="M 0.125 -1.21875 L 0.125 -1.40625 L 0.296875 -1.40625 L 0.296875 -1.21875 Z M 0.296875 0 L 0.125 0 L 0.125 -1.03125 L 0.296875 -1.03125 Z M 0.296875 0 "/></g></g><g transform="translate(33.41262, 23.346103)"><g><path d="M 0.25 -0.515625 C 0.25 -0.390625 0.273438 -0.289062 0.328125 -0.21875 C 0.378906 -0.15625 0.445312 -0.125 0.53125 -0.125 C 0.613281 -0.125 0.679688 -0.148438 0.734375 -0.203125 C 0.785156 -0.265625 0.8125 -0.351562 0.8125 -0.46875 C 0.8125 -0.613281 0.785156 -0.722656 0.734375 -0.796875 C 0.691406 -0.867188 0.628906 -0.90625 0.546875 -0.90625 C 0.453125 -0.90625 0.378906 -0.875 0.328125 -0.8125 C 0.273438 -0.757812 0.25 -0.660156 0.25 -0.515625 Z M 0.984375 0 L 0.828125 0 L 0.828125 -0.140625 C 0.765625 -0.0234375 0.664062 0.03125 0.53125 0.03125 C 0.382812 0.03125 0.269531 -0.0195312 0.1875 -0.125 C 0.113281 -0.238281 0.078125 -0.378906 0.078125 -0.546875 C 0.078125 -0.703125 0.113281 -0.828125 0.1875 -0.921875 C 0.269531 -1.015625 0.375 -1.0625 0.5 -1.0625 C 0.632812 -1.0625 0.738281 -1.003906 0.8125 -0.890625 L 0.8125 -1.40625 L 0.984375 -1.40625 Z M 0.984375 0 "/></g></g><g transform="translate(34.538579, 23.346103)"><g><path d="M 0.125 -1.21875 L 0.125 -1.40625 L 0.296875 -1.40625 L 0.296875 -1.21875 Z M 0.296875 0 L 0.125 0 L 0.125 -1.03125 L 0.296875 -1.03125 Z M 0.296875 0 "/></g></g><g transform="translate(34.973719, 23.346103)"><g><path d="M 0.96875 0 L 0.796875 0 L 0.796875 -0.640625 C 0.796875 -0.734375 0.773438 -0.800781 0.734375 -0.84375 C 0.703125 -0.882812 0.648438 -0.90625 0.578125 -0.90625 C 0.492188 -0.90625 0.425781 -0.875 0.375 -0.8125 C 0.320312 -0.757812 0.296875 -0.675781 0.296875 -0.5625 L 0.296875 0 L 0.125 0 L 0.125 -1.03125 L 0.296875 -1.03125 L 0.296875 -0.890625 C 0.378906 -1.003906 0.484375 -1.0625 0.609375 -1.0625 C 0.722656 -1.0625 0.8125 -1.03125 0.875 -0.96875 C 0.9375 -0.90625 0.96875 -0.816406 0.96875 -0.703125 Z M 0.96875 0 "/></g></g><g transform="translate(36.06398, 23.346103)"><g><path d="M 0.25 -0.515625 C 0.25 -0.390625 0.273438 -0.289062 0.328125 -0.21875 C 0.378906 -0.15625 0.445312 -0.125 0.53125 -0.125 C 0.613281 -0.125 0.679688 -0.148438 0.734375 -0.203125 C 0.785156 -0.265625 0.8125 -0.351562 0.8125 -0.46875 C 0.8125 -0.613281 0.785156 -0.722656 0.734375 -0.796875 C 0.691406 -0.867188 0.625 -0.90625 0.53125 -0.90625 C 0.4375 -0.90625 0.363281 -0.875 0.3125 -0.8125 C 0.269531 -0.75 0.25 -0.648438 0.25 -0.515625 Z M 0.984375 -0.0625 C 0.984375 0.101562 0.941406 0.226562 0.859375 0.3125 C 0.773438 0.394531 0.65625 0.4375 0.5 0.4375 C 0.382812 0.4375 0.289062 0.410156 0.21875 0.359375 C 0.15625 0.304688 0.117188 0.226562 0.109375 0.125 L 0.28125 0.125 C 0.289062 0.175781 0.3125 0.21875 0.34375 0.25 C 0.382812 0.28125 0.441406 0.296875 0.515625 0.296875 C 0.609375 0.296875 0.679688 0.269531 0.734375 0.21875 C 0.785156 0.164062 0.8125 0.078125 0.8125 -0.046875 L 0.8125 -0.109375 L 0.796875 -0.109375 C 0.734375 -0.015625 0.644531 0.03125 0.53125 0.03125 C 0.382812 0.03125 0.269531 -0.0195312 0.1875 -0.125 C 0.113281 -0.238281 0.078125 -0.378906 0.078125 -0.546875 C 0.078125 -0.703125 0.113281 -0.828125 0.1875 -0.921875 C 0.269531 -1.015625 0.375 -1.0625 0.5 -1.0625 C 0.632812 -1.0625 0.738281 -1.003906 0.8125 -0.890625 L 0.8125 -1.03125 L 0.984375 -1.03125 Z M 0.984375 -0.0625 "/></g></g><g transform="translate(37.168714, 23.346103)"><g/></g><g transform="translate(37.65113, 23.346103)"><g><path d="M 0.34375 0 L 0.15625 0 L 0.15625 -1.40625 L 1.140625 -1.40625 L 1.140625 -1.25 L 0.34375 -1.25 L 0.34375 -0.8125 L 1.046875 -0.8125 L 1.046875 -0.640625 L 0.34375 -0.640625 Z M 0.34375 0 "/></g></g><g transform="translate(38.832086, 23.346103)"><g><path d="M 0.125 -1.03125 L 0.296875 -1.03125 L 0.296875 -0.34375 C 0.296875 -0.269531 0.3125 -0.210938 0.34375 -0.171875 C 0.375 -0.140625 0.425781 -0.125 0.5 -0.125 C 0.582031 -0.125 0.648438 -0.15625 0.703125 -0.21875 C 0.753906 -0.28125 0.78125 -0.363281 0.78125 -0.46875 L 0.78125 -1.03125 L 0.953125 -1.03125 L 0.953125 0 L 0.78125 0 L 0.78125 -0.15625 C 0.71875 -0.03125 0.609375 0.03125 0.453125 0.03125 C 0.359375 0.03125 0.28125 0.00390625 0.21875 -0.046875 C 0.15625 -0.0976562 0.125 -0.179688 0.125 -0.296875 Z M 0.125 -1.03125 "/></g></g><g transform="translate(39.914628, 23.346103)"><g><path d="M 0.34375 -0.890625 L 0.34375 -0.21875 C 0.34375 -0.1875 0.347656 -0.164062 0.359375 -0.15625 C 0.367188 -0.144531 0.394531 -0.140625 0.4375 -0.140625 L 0.5 -0.140625 L 0.5 0 C 0.4375 0.0078125 0.394531 0.015625 0.375 0.015625 C 0.300781 0.015625 0.25 0 0.21875 -0.03125 C 0.1875 -0.0703125 0.171875 -0.128906 0.171875 -0.203125 L 0.171875 -0.890625 L 0.03125 -0.890625 L 0.03125 -1.03125 L 0.171875 -1.03125 L 0.171875 -1.3125 L 0.34375 -1.3125 L 0.34375 -1.03125 L 0.5 -1.03125 L 0.5 -0.890625 Z M 0.34375 -0.890625 "/></g></g><g transform="translate(40.461688, 23.346103)"><g><path d="M 0.125 -1.03125 L 0.296875 -1.03125 L 0.296875 -0.34375 C 0.296875 -0.269531 0.3125 -0.210938 0.34375 -0.171875 C 0.375 -0.140625 0.425781 -0.125 0.5 -0.125 C 0.582031 -0.125 0.648438 -0.15625 0.703125 -0.21875 C 0.753906 -0.28125 0.78125 -0.363281 0.78125 -0.46875 L 0.78125 -1.03125 L 0.953125 -1.03125 L 0.953125 0 L 0.78125 0 L 0.78125 -0.15625 C 0.71875 -0.03125 0.609375 0.03125 0.453125 0.03125 C 0.359375 0.03125 0.28125 0.00390625 0.21875 -0.046875 C 0.15625 -0.0976562 0.125 -0.179688 0.125 -0.296875 Z M 0.125 -1.03125 "/></g></g><g transform="translate(41.544231, 23.346103)"><g><path d="M 0.296875 0 L 0.125 0 L 0.125 -1.03125 L 0.296875 -1.03125 L 0.296875 -0.859375 C 0.367188 -0.992188 0.46875 -1.0625 0.59375 -1.0625 C 0.601562 -1.0625 0.613281 -1.054688 0.625 -1.046875 L 0.625 -0.875 L 0.5625 -0.875 C 0.488281 -0.875 0.425781 -0.847656 0.375 -0.796875 C 0.320312 -0.742188 0.296875 -0.675781 0.296875 -0.59375 Z M 0.296875 0 "/></g></g><g transform="translate(42.187774, 23.346103)"><g><path d="M 0.84375 -0.59375 C 0.832031 -0.707031 0.800781 -0.785156 0.75 -0.828125 C 0.695312 -0.878906 0.628906 -0.90625 0.546875 -0.90625 C 0.460938 -0.90625 0.394531 -0.875 0.34375 -0.8125 C 0.289062 -0.757812 0.265625 -0.6875 0.265625 -0.59375 Z M 1 -0.328125 C 0.976562 -0.210938 0.925781 -0.125 0.84375 -0.0625 C 0.769531 0 0.671875 0.03125 0.546875 0.03125 C 0.398438 0.03125 0.285156 -0.015625 0.203125 -0.109375 C 0.117188 -0.203125 0.078125 -0.328125 0.078125 -0.484375 C 0.078125 -0.660156 0.117188 -0.800781 0.203125 -0.90625 C 0.296875 -1.007812 0.421875 -1.0625 0.578125 -1.0625 C 0.710938 -1.0625 0.816406 -1.007812 0.890625 -0.90625 C 0.972656 -0.800781 1.015625 -0.648438 1.015625 -0.453125 L 0.265625 -0.453125 C 0.265625 -0.347656 0.285156 -0.265625 0.328125 -0.203125 C 0.378906 -0.148438 0.457031 -0.125 0.5625 -0.125 C 0.632812 -0.125 0.695312 -0.144531 0.75 -0.1875 C 0.800781 -0.226562 0.828125 -0.273438 0.828125 -0.328125 Z M 1 -0.328125 "/></g></g><g transform="translate(43.282859, 23.346103)"><g><path d="M 0.703125 -0.734375 C 0.703125 -0.796875 0.679688 -0.835938 0.640625 -0.859375 C 0.597656 -0.890625 0.539062 -0.90625 0.46875 -0.90625 C 0.40625 -0.90625 0.351562 -0.890625 0.3125 -0.859375 C 0.28125 -0.835938 0.265625 -0.804688 0.265625 -0.765625 C 0.265625 -0.722656 0.273438 -0.691406 0.296875 -0.671875 C 0.316406 -0.660156 0.367188 -0.644531 0.453125 -0.625 L 0.625 -0.578125 C 0.726562 -0.554688 0.800781 -0.523438 0.84375 -0.484375 C 0.882812 -0.441406 0.90625 -0.382812 0.90625 -0.3125 C 0.90625 -0.207031 0.867188 -0.125 0.796875 -0.0625 C 0.722656 0 0.625 0.03125 0.5 0.03125 C 0.351562 0.03125 0.242188 0 0.171875 -0.0625 C 0.0976562 -0.125 0.0625 -0.210938 0.0625 -0.328125 L 0.234375 -0.328125 C 0.234375 -0.253906 0.253906 -0.203125 0.296875 -0.171875 C 0.347656 -0.140625 0.414062 -0.125 0.5 -0.125 C 0.570312 -0.125 0.628906 -0.132812 0.671875 -0.15625 C 0.710938 -0.1875 0.734375 -0.226562 0.734375 -0.28125 C 0.734375 -0.320312 0.71875 -0.351562 0.6875 -0.375 C 0.664062 -0.394531 0.613281 -0.414062 0.53125 -0.4375 L 0.328125 -0.484375 C 0.242188 -0.503906 0.179688 -0.535156 0.140625 -0.578125 C 0.109375 -0.617188 0.09375 -0.671875 0.09375 -0.734375 C 0.09375 -0.828125 0.128906 -0.90625 0.203125 -0.96875 C 0.273438 -1.03125 0.367188 -1.0625 0.484375 -1.0625 C 0.609375 -1.0625 0.703125 -1.03125 0.765625 -0.96875 C 0.835938 -0.90625 0.875 -0.828125 0.875 -0.734375 Z M 0.703125 -0.734375 "/></g></g><g transform="translate(44.270848, 23.346103)"><g><path d="M 0.171875 -0.203125 L 0.375 -0.203125 L 0.375 -0.015625 C 0.375 0.078125 0.351562 0.148438 0.3125 0.203125 C 0.269531 0.253906 0.222656 0.285156 0.171875 0.296875 L 0.171875 0.203125 C 0.242188 0.191406 0.28125 0.125 0.28125 0 L 0.171875 0 Z M 0.171875 -0.203125 "/></g></g><g transform="translate(44.819838, 23.346103)"><g/></g><g transform="translate(45.302255, 23.346103)"><g><path d="M 1.203125 0 L 0.15625 0 L 0.15625 -1.40625 L 1.1875 -1.40625 L 1.1875 -1.25 L 0.34375 -1.25 L 0.34375 -0.8125 L 1.125 -0.8125 L 1.125 -0.640625 L 0.34375 -0.640625 L 0.34375 -0.171875 L 1.203125 -0.171875 Z M 1.203125 0 "/></g></g><g transform="translate(46.586447, 23.346103)"><g><path d="M 0.96875 0 L 0.734375 0 L 0.484375 -0.390625 L 0.234375 0 L 0.015625 0 L 0.375 -0.53125 L 0.046875 -1.03125 L 0.265625 -1.03125 L 0.5 -0.671875 L 0.734375 -1.03125 L 0.953125 -1.03125 L 0.609375 -0.53125 Z M 0.96875 0 "/></g></g><g transform="translate(47.574436, 23.346103)"><g><path d="M 0.296875 -0.46875 C 0.296875 -0.351562 0.320312 -0.265625 0.375 -0.203125 C 0.425781 -0.148438 0.492188 -0.125 0.578125 -0.125 C 0.660156 -0.125 0.726562 -0.15625 0.78125 -0.21875 C 0.832031 -0.289062 0.859375 -0.390625 0.859375 -0.515625 C 0.859375 -0.648438 0.832031 -0.75 0.78125 -0.8125 C 0.738281 -0.875 0.671875 -0.90625 0.578125 -0.90625 C 0.484375 -0.90625 0.410156 -0.867188 0.359375 -0.796875 C 0.316406 -0.722656 0.296875 -0.613281 0.296875 -0.46875 Z M 0.125 -1.03125 L 0.296875 -1.03125 L 0.296875 -0.890625 C 0.367188 -1.003906 0.472656 -1.0625 0.609375 -1.0625 C 0.734375 -1.0625 0.832031 -1.007812 0.90625 -0.90625 C 0.988281 -0.8125 1.03125 -0.691406 1.03125 -0.546875 C 1.03125 -0.378906 0.988281 -0.238281 0.90625 -0.125 C 0.832031 -0.0195312 0.722656 0.03125 0.578125 0.03125 C 0.460938 0.03125 0.375 -0.015625 0.3125 -0.109375 L 0.296875 -0.109375 L 0.296875 0.40625 L 0.125 0.40625 Z M 0.125 -1.03125 "/></g></g><g transform="translate(48.690748, 23.346103)"><g><path d="M 0.296875 0 L 0.125 0 L 0.125 -1.40625 L 0.296875 -1.40625 Z M 0.296875 0 "/></g></g><g transform="translate(49.125887, 23.346103)"><g><path d="M 0.25 -0.515625 C 0.25 -0.398438 0.273438 -0.304688 0.328125 -0.234375 C 0.378906 -0.160156 0.453125 -0.125 0.546875 -0.125 C 0.648438 -0.125 0.722656 -0.160156 0.765625 -0.234375 C 0.816406 -0.316406 0.84375 -0.410156 0.84375 -0.515625 C 0.84375 -0.617188 0.816406 -0.707031 0.765625 -0.78125 C 0.722656 -0.863281 0.648438 -0.90625 0.546875 -0.90625 C 0.453125 -0.90625 0.378906 -0.867188 0.328125 -0.796875 C 0.273438 -0.722656 0.25 -0.628906 0.25 -0.515625 Z M 0.078125 -0.515625 C 0.078125 -0.671875 0.117188 -0.800781 0.203125 -0.90625 C 0.285156 -1.007812 0.398438 -1.0625 0.546875 -1.0625 C 0.703125 -1.0625 0.820312 -1.003906 0.90625 -0.890625 C 0.988281 -0.785156 1.03125 -0.660156 1.03125 -0.515625 C 1.03125 -0.367188 0.988281 -0.238281 0.90625 -0.125 C 0.820312 -0.0195312 0.703125 0.03125 0.546875 0.03125 C 0.398438 0.03125 0.285156 -0.0195312 0.203125 -0.125 C 0.117188 -0.226562 0.078125 -0.359375 0.078125 -0.515625 Z M 0.078125 -0.515625 "/></g></g><g transform="translate(50.230621, 23.346103)"><g><path d="M 0.296875 0 L 0.125 0 L 0.125 -1.03125 L 0.296875 -1.03125 L 0.296875 -0.859375 C 0.367188 -0.992188 0.46875 -1.0625 0.59375 -1.0625 C 0.601562 -1.0625 0.613281 -1.054688 0.625 -1.046875 L 0.625 -0.875 L 0.5625 -0.875 C 0.488281 -0.875 0.425781 -0.847656 0.375 -0.796875 C 0.320312 -0.742188 0.296875 -0.675781 0.296875 -0.59375 Z M 0.296875 0 "/></g></g><g transform="translate(50.874164, 23.346103)"><g><path d="M 0.125 -1.21875 L 0.125 -1.40625 L 0.296875 -1.40625 L 0.296875 -1.21875 Z M 0.296875 0 L 0.125 0 L 0.125 -1.03125 L 0.296875 -1.03125 Z M 0.296875 0 "/></g></g><g transform="translate(51.309304, 23.346103)"><g><path d="M 0.96875 0 L 0.796875 0 L 0.796875 -0.640625 C 0.796875 -0.734375 0.773438 -0.800781 0.734375 -0.84375 C 0.703125 -0.882812 0.648438 -0.90625 0.578125 -0.90625 C 0.492188 -0.90625 0.425781 -0.875 0.375 -0.8125 C 0.320312 -0.757812 0.296875 -0.675781 0.296875 -0.5625 L 0.296875 0 L 0.125 0 L 0.125 -1.03125 L 0.296875 -1.03125 L 0.296875 -0.890625 C 0.378906 -1.003906 0.484375 -1.0625 0.609375 -1.0625 C 0.722656 -1.0625 0.8125 -1.03125 0.875 -0.96875 C 0.9375 -0.90625 0.96875 -0.816406 0.96875 -0.703125 Z M 0.96875 0 "/></g></g><g transform="translate(52.399565, 23.346103)"><g><path d="M 0.25 -0.515625 C 0.25 -0.390625 0.273438 -0.289062 0.328125 -0.21875 C 0.378906 -0.15625 0.445312 -0.125 0.53125 -0.125 C 0.613281 -0.125 0.679688 -0.148438 0.734375 -0.203125 C 0.785156 -0.265625 0.8125 -0.351562 0.8125 -0.46875 C 0.8125 -0.613281 0.785156 -0.722656 0.734375 -0.796875 C 0.691406 -0.867188 0.625 -0.90625 0.53125 -0.90625 C 0.4375 -0.90625 0.363281 -0.875 0.3125 -0.8125 C 0.269531 -0.75 0.25 -0.648438 0.25 -0.515625 Z M 0.984375 -0.0625 C 0.984375 0.101562 0.941406 0.226562 0.859375 0.3125 C 0.773438 0.394531 0.65625 0.4375 0.5 0.4375 C 0.382812 0.4375 0.289062 0.410156 0.21875 0.359375 C 0.15625 0.304688 0.117188 0.226562 0.109375 0.125 L 0.28125 0.125 C 0.289062 0.175781 0.3125 0.21875 0.34375 0.25 C 0.382812 0.28125 0.441406 0.296875 0.515625 0.296875 C 0.609375 0.296875 0.679688 0.269531 0.734375 0.21875 C 0.785156 0.164062 0.8125 0.078125 0.8125 -0.046875 L 0.8125 -0.109375 L 0.796875 -0.109375 C 0.734375 -0.015625 0.644531 0.03125 0.53125 0.03125 C 0.382812 0.03125 0.269531 -0.0195312 0.1875 -0.125 C 0.113281 -0.238281 0.078125 -0.378906 0.078125 -0.546875 C 0.078125 -0.703125 0.113281 -0.828125 0.1875 -0.921875 C 0.269531 -1.015625 0.375 -1.0625 0.5 -1.0625 C 0.632812 -1.0625 0.738281 -1.003906 0.8125 -0.890625 L 0.8125 -1.03125 L 0.984375 -1.03125 Z M 0.984375 -0.0625 "/></g></g><g transform="translate(53.504299, 23.346103)"><g/></g><g transform="translate(53.986715, 23.346103)"><g><path d="M 0.609375 0 L 0.40625 0 L 0.046875 -1.40625 L 0.25 -1.40625 L 0.515625 -0.265625 L 0.828125 -1.40625 L 1.046875 -1.40625 L 1.359375 -0.265625 L 1.625 -1.40625 L 1.84375 -1.40625 L 1.46875 0 L 1.265625 0 L 0.9375 -1.171875 Z M 0.609375 0 "/></g></g><g transform="translate(55.870069, 23.346103)"><g><path d="M 0.25 -0.515625 C 0.25 -0.398438 0.273438 -0.304688 0.328125 -0.234375 C 0.378906 -0.160156 0.453125 -0.125 0.546875 -0.125 C 0.648438 -0.125 0.722656 -0.160156 0.765625 -0.234375 C 0.816406 -0.316406 0.84375 -0.410156 0.84375 -0.515625 C 0.84375 -0.617188 0.816406 -0.707031 0.765625 -0.78125 C 0.722656 -0.863281 0.648438 -0.90625 0.546875 -0.90625 C 0.453125 -0.90625 0.378906 -0.867188 0.328125 -0.796875 C 0.273438 -0.722656 0.25 -0.628906 0.25 -0.515625 Z M 0.078125 -0.515625 C 0.078125 -0.671875 0.117188 -0.800781 0.203125 -0.90625 C 0.285156 -1.007812 0.398438 -1.0625 0.546875 -1.0625 C 0.703125 -1.0625 0.820312 -1.003906 0.90625 -0.890625 C 0.988281 -0.785156 1.03125 -0.660156 1.03125 -0.515625 C 1.03125 -0.367188 0.988281 -0.238281 0.90625 -0.125 C 0.820312 -0.0195312 0.703125 0.03125 0.546875 0.03125 C 0.398438 0.03125 0.285156 -0.0195312 0.203125 -0.125 C 0.117188 -0.226562 0.078125 -0.359375 0.078125 -0.515625 Z M 0.078125 -0.515625 "/></g></g><g transform="translate(56.974802, 23.346103)"><g><path d="M 0.296875 0 L 0.125 0 L 0.125 -1.03125 L 0.296875 -1.03125 L 0.296875 -0.859375 C 0.367188 -0.992188 0.46875 -1.0625 0.59375 -1.0625 C 0.601562 -1.0625 0.613281 -1.054688 0.625 -1.046875 L 0.625 -0.875 L 0.5625 -0.875 C 0.488281 -0.875 0.425781 -0.847656 0.375 -0.796875 C 0.320312 -0.742188 0.296875 -0.675781 0.296875 -0.59375 Z M 0.296875 0 "/></g></g><g transform="translate(57.618346, 23.346103)"><g><path d="M 0.296875 0 L 0.125 0 L 0.125 -1.40625 L 0.296875 -1.40625 Z M 0.296875 0 "/></g></g><g transform="translate(58.053485, 23.346103)"><g><path d="M 0.25 -0.515625 C 0.25 -0.390625 0.273438 -0.289062 0.328125 -0.21875 C 0.378906 -0.15625 0.445312 -0.125 0.53125 -0.125 C 0.613281 -0.125 0.679688 -0.148438 0.734375 -0.203125 C 0.785156 -0.265625 0.8125 -0.351562 0.8125 -0.46875 C 0.8125 -0.613281 0.785156 -0.722656 0.734375 -0.796875 C 0.691406 -0.867188 0.628906 -0.90625 0.546875 -0.90625 C 0.453125 -0.90625 0.378906 -0.875 0.328125 -0.8125 C 0.273438 -0.757812 0.25 -0.660156 0.25 -0.515625 Z M 0.984375 0 L 0.828125 0 L 0.828125 -0.140625 C 0.765625 -0.0234375 0.664062 0.03125 0.53125 0.03125 C 0.382812 0.03125 0.269531 -0.0195312 0.1875 -0.125 C 0.113281 -0.238281 0.078125 -0.378906 0.078125 -0.546875 C 0.078125 -0.703125 0.113281 -0.828125 0.1875 -0.921875 C 0.269531 -1.015625 0.375 -1.0625 0.5 -1.0625 C 0.632812 -1.0625 0.738281 -1.003906 0.8125 -0.890625 L 0.8125 -1.40625 L 0.984375 -1.40625 Z M 0.984375 0 "/></g></g><g transform="translate(59.179445, 23.346103)"><g><path d="M 0.703125 -0.734375 C 0.703125 -0.796875 0.679688 -0.835938 0.640625 -0.859375 C 0.597656 -0.890625 0.539062 -0.90625 0.46875 -0.90625 C 0.40625 -0.90625 0.351562 -0.890625 0.3125 -0.859375 C 0.28125 -0.835938 0.265625 -0.804688 0.265625 -0.765625 C 0.265625 -0.722656 0.273438 -0.691406 0.296875 -0.671875 C 0.316406 -0.660156 0.367188 -0.644531 0.453125 -0.625 L 0.625 -0.578125 C 0.726562 -0.554688 0.800781 -0.523438 0.84375 -0.484375 C 0.882812 -0.441406 0.90625 -0.382812 0.90625 -0.3125 C 0.90625 -0.207031 0.867188 -0.125 0.796875 -0.0625 C 0.722656 0 0.625 0.03125 0.5 0.03125 C 0.351562 0.03125 0.242188 0 0.171875 -0.0625 C 0.0976562 -0.125 0.0625 -0.210938 0.0625 -0.328125 L 0.234375 -0.328125 C 0.234375 -0.253906 0.253906 -0.203125 0.296875 -0.171875 C 0.347656 -0.140625 0.414062 -0.125 0.5 -0.125 C 0.570312 -0.125 0.628906 -0.132812 0.671875 -0.15625 C 0.710938 -0.1875 0.734375 -0.226562 0.734375 -0.28125 C 0.734375 -0.320312 0.71875 -0.351562 0.6875 -0.375 C 0.664062 -0.394531 0.613281 -0.414062 0.53125 -0.4375 L 0.328125 -0.484375 C 0.242188 -0.503906 0.179688 -0.535156 0.140625 -0.578125 C 0.109375 -0.617188 0.09375 -0.671875 0.09375 -0.734375 C 0.09375 -0.828125 0.128906 -0.90625 0.203125 -0.96875 C 0.273438 -1.03125 0.367188 -1.0625 0.484375 -1.0625 C 0.609375 -1.0625 0.703125 -1.03125 0.765625 -0.96875 C 0.835938 -0.90625 0.875 -0.828125 0.875 -0.734375 Z M 0.703125 -0.734375 "/></g></g><g transform="translate(60.167434, 23.346103)"><g><path d="M 0.171875 -0.203125 L 0.375 -0.203125 L 0.375 -0.015625 C 0.375 0.078125 0.351562 0.148438 0.3125 0.203125 C 0.269531 0.253906 0.222656 0.285156 0.171875 0.296875 L 0.171875 0.203125 C 0.242188 0.191406 0.28125 0.125 0.28125 0 L 0.171875 0 Z M 0.171875 -0.203125 "/></g></g><g transform="translate(60.716424, 23.346103)"><g/></g><g transform="translate(61.19884, 23.346103)"><g><path d="M 1.203125 0 L 0.15625 0 L 0.15625 -1.40625 L 1.1875 -1.40625 L 1.1875 -1.25 L 0.34375 -1.25 L 0.34375 -0.8125 L 1.125 -0.8125 L 1.125 -0.640625 L 0.34375 -0.640625 L 0.34375 -0.171875 L 1.203125 -0.171875 Z M 1.203125 0 "/></g></g><g transform="translate(62.483033, 23.346103)"><g><path d="M 0.125 -1.03125 L 0.296875 -1.03125 L 0.296875 -0.890625 C 0.367188 -1.003906 0.472656 -1.0625 0.609375 -1.0625 C 0.734375 -1.0625 0.820312 -1.003906 0.875 -0.890625 C 0.925781 -0.953125 0.972656 -0.992188 1.015625 -1.015625 C 1.066406 -1.046875 1.128906 -1.0625 1.203125 -1.0625 C 1.285156 -1.0625 1.359375 -1.03125 1.421875 -0.96875 C 1.484375 -0.914062 1.515625 -0.832031 1.515625 -0.71875 L 1.515625 0 L 1.34375 0 L 1.34375 -0.671875 C 1.34375 -0.742188 1.328125 -0.800781 1.296875 -0.84375 C 1.265625 -0.882812 1.21875 -0.90625 1.15625 -0.90625 C 1.082031 -0.90625 1.019531 -0.875 0.96875 -0.8125 C 0.925781 -0.757812 0.90625 -0.695312 0.90625 -0.625 L 0.90625 0 L 0.734375 0 L 0.734375 -0.71875 C 0.734375 -0.769531 0.71875 -0.8125 0.6875 -0.84375 C 0.664062 -0.882812 0.628906 -0.90625 0.578125 -0.90625 C 0.492188 -0.90625 0.425781 -0.875 0.375 -0.8125 C 0.320312 -0.75 0.296875 -0.664062 0.296875 -0.5625 L 0.296875 0 L 0.125 0 Z M 0.125 -1.03125 "/></g></g><g transform="translate(64.123249, 23.346103)"><g><path d="M 0.296875 -0.46875 C 0.296875 -0.351562 0.320312 -0.265625 0.375 -0.203125 C 0.425781 -0.148438 0.492188 -0.125 0.578125 -0.125 C 0.660156 -0.125 0.726562 -0.15625 0.78125 -0.21875 C 0.832031 -0.289062 0.859375 -0.390625 0.859375 -0.515625 C 0.859375 -0.648438 0.832031 -0.75 0.78125 -0.8125 C 0.738281 -0.875 0.671875 -0.90625 0.578125 -0.90625 C 0.484375 -0.90625 0.410156 -0.867188 0.359375 -0.796875 C 0.316406 -0.722656 0.296875 -0.613281 0.296875 -0.46875 Z M 0.125 -1.03125 L 0.296875 -1.03125 L 0.296875 -0.890625 C 0.367188 -1.003906 0.472656 -1.0625 0.609375 -1.0625 C 0.734375 -1.0625 0.832031 -1.007812 0.90625 -0.90625 C 0.988281 -0.8125 1.03125 -0.691406 1.03125 -0.546875 C 1.03125 -0.378906 0.988281 -0.238281 0.90625 -0.125 C 0.832031 -0.0195312 0.722656 0.03125 0.578125 0.03125 C 0.460938 0.03125 0.375 -0.015625 0.3125 -0.109375 L 0.296875 -0.109375 L 0.296875 0.40625 L 0.125 0.40625 Z M 0.125 -1.03125 "/></g></g><g transform="translate(65.23956, 23.346103)"><g><path d="M 0.25 -0.515625 C 0.25 -0.398438 0.273438 -0.304688 0.328125 -0.234375 C 0.378906 -0.160156 0.453125 -0.125 0.546875 -0.125 C 0.648438 -0.125 0.722656 -0.160156 0.765625 -0.234375 C 0.816406 -0.316406 0.84375 -0.410156 0.84375 -0.515625 C 0.84375 -0.617188 0.816406 -0.707031 0.765625 -0.78125 C 0.722656 -0.863281 0.648438 -0.90625 0.546875 -0.90625 C 0.453125 -0.90625 0.378906 -0.867188 0.328125 -0.796875 C 0.273438 -0.722656 0.25 -0.628906 0.25 -0.515625 Z M 0.078125 -0.515625 C 0.078125 -0.671875 0.117188 -0.800781 0.203125 -0.90625 C 0.285156 -1.007812 0.398438 -1.0625 0.546875 -1.0625 C 0.703125 -1.0625 0.820312 -1.003906 0.90625 -0.890625 C 0.988281 -0.785156 1.03125 -0.660156 1.03125 -0.515625 C 1.03125 -0.367188 0.988281 -0.238281 0.90625 -0.125 C 0.820312 -0.0195312 0.703125 0.03125 0.546875 0.03125 C 0.398438 0.03125 0.285156 -0.0195312 0.203125 -0.125 C 0.117188 -0.226562 0.078125 -0.359375 0.078125 -0.515625 Z M 0.078125 -0.515625 "/></g></g><g transform="translate(66.344294, 23.346103)"><g><path d="M 0.5 0 L 0.328125 0 L 0.03125 -1.03125 L 0.21875 -1.03125 L 0.40625 -0.21875 L 0.421875 -0.21875 L 0.609375 -1.03125 L 0.8125 -1.03125 L 1.015625 -0.21875 L 1.21875 -1.03125 L 1.390625 -1.03125 L 1.09375 0 L 0.921875 0 L 0.703125 -0.796875 Z M 0.5 0 "/></g></g><g transform="translate(67.775141, 23.346103)"><g><path d="M 0.84375 -0.59375 C 0.832031 -0.707031 0.800781 -0.785156 0.75 -0.828125 C 0.695312 -0.878906 0.628906 -0.90625 0.546875 -0.90625 C 0.460938 -0.90625 0.394531 -0.875 0.34375 -0.8125 C 0.289062 -0.757812 0.265625 -0.6875 0.265625 -0.59375 Z M 1 -0.328125 C 0.976562 -0.210938 0.925781 -0.125 0.84375 -0.0625 C 0.769531 0 0.671875 0.03125 0.546875 0.03125 C 0.398438 0.03125 0.285156 -0.015625 0.203125 -0.109375 C 0.117188 -0.203125 0.078125 -0.328125 0.078125 -0.484375 C 0.078125 -0.660156 0.117188 -0.800781 0.203125 -0.90625 C 0.296875 -1.007812 0.421875 -1.0625 0.578125 -1.0625 C 0.710938 -1.0625 0.816406 -1.007812 0.890625 -0.90625 C 0.972656 -0.800781 1.015625 -0.648438 1.015625 -0.453125 L 0.265625 -0.453125 C 0.265625 -0.347656 0.285156 -0.265625 0.328125 -0.203125 C 0.378906 -0.148438 0.457031 -0.125 0.5625 -0.125 C 0.632812 -0.125 0.695312 -0.144531 0.75 -0.1875 C 0.800781 -0.226562 0.828125 -0.273438 0.828125 -0.328125 Z M 1 -0.328125 "/></g></g><g transform="translate(68.870226, 23.346103)"><g><path d="M 0.296875 0 L 0.125 0 L 0.125 -1.03125 L 0.296875 -1.03125 L 0.296875 -0.859375 C 0.367188 -0.992188 0.46875 -1.0625 0.59375 -1.0625 C 0.601562 -1.0625 0.613281 -1.054688 0.625 -1.046875 L 0.625 -0.875 L 0.5625 -0.875 C 0.488281 -0.875 0.425781 -0.847656 0.375 -0.796875 C 0.320312 -0.742188 0.296875 -0.675781 0.296875 -0.59375 Z M 0.296875 0 "/></g></g><g transform="translate(69.51377, 23.346103)"><g><path d="M 0.125 -1.21875 L 0.125 -1.40625 L 0.296875 -1.40625 L 0.296875 -1.21875 Z M 0.296875 0 L 0.125 0 L 0.125 -1.03125 L 0.296875 -1.03125 Z M 0.296875 0 "/></g></g><g transform="translate(69.948909, 23.346103)"><g><path d="M 0.96875 0 L 0.796875 0 L 0.796875 -0.640625 C 0.796875 -0.734375 0.773438 -0.800781 0.734375 -0.84375 C 0.703125 -0.882812 0.648438 -0.90625 0.578125 -0.90625 C 0.492188 -0.90625 0.425781 -0.875 0.375 -0.8125 C 0.320312 -0.757812 0.296875 -0.675781 0.296875 -0.5625 L 0.296875 0 L 0.125 0 L 0.125 -1.03125 L 0.296875 -1.03125 L 0.296875 -0.890625 C 0.378906 -1.003906 0.484375 -1.0625 0.609375 -1.0625 C 0.722656 -1.0625 0.8125 -1.03125 0.875 -0.96875 C 0.9375 -0.90625 0.96875 -0.816406 0.96875 -0.703125 Z M 0.96875 0 "/></g></g><g transform="translate(71.039171, 23.346103)"><g><path d="M 0.25 -0.515625 C 0.25 -0.390625 0.273438 -0.289062 0.328125 -0.21875 C 0.378906 -0.15625 0.445312 -0.125 0.53125 -0.125 C 0.613281 -0.125 0.679688 -0.148438 0.734375 -0.203125 C 0.785156 -0.265625 0.8125 -0.351562 0.8125 -0.46875 C 0.8125 -0.613281 0.785156 -0.722656 0.734375 -0.796875 C 0.691406 -0.867188 0.625 -0.90625 0.53125 -0.90625 C 0.4375 -0.90625 0.363281 -0.875 0.3125 -0.8125 C 0.269531 -0.75 0.25 -0.648438 0.25 -0.515625 Z M 0.984375 -0.0625 C 0.984375 0.101562 0.941406 0.226562 0.859375 0.3125 C 0.773438 0.394531 0.65625 0.4375 0.5 0.4375 C 0.382812 0.4375 0.289062 0.410156 0.21875 0.359375 C 0.15625 0.304688 0.117188 0.226562 0.109375 0.125 L 0.28125 0.125 C 0.289062 0.175781 0.3125 0.21875 0.34375 0.25 C 0.382812 0.28125 0.441406 0.296875 0.515625 0.296875 C 0.609375 0.296875 0.679688 0.269531 0.734375 0.21875 C 0.785156 0.164062 0.8125 0.078125 0.8125 -0.046875 L 0.8125 -0.109375 L 0.796875 -0.109375 C 0.734375 -0.015625 0.644531 0.03125 0.53125 0.03125 C 0.382812 0.03125 0.269531 -0.0195312 0.1875 -0.125 C 0.113281 -0.238281 0.078125 -0.378906 0.078125 -0.546875 C 0.078125 -0.703125 0.113281 -0.828125 0.1875 -0.921875 C 0.269531 -1.015625 0.375 -1.0625 0.5 -1.0625 C 0.632812 -1.0625 0.738281 -1.003906 0.8125 -0.890625 L 0.8125 -1.03125 L 0.984375 -1.03125 Z M 0.984375 -0.0625 "/></g></g><g transform="translate(72.143904, 23.346103)"><g/></g><g transform="translate(72.626321, 23.346103)"><g><path d="M 0.5 -1.25 L 0.03125 -1.25 L 0.03125 -1.40625 L 1.171875 -1.40625 L 1.171875 -1.25 L 0.6875 -1.25 L 0.6875 0 L 0.5 0 Z M 0.5 -1.25 "/></g></g><g transform="translate(73.826573, 23.346103)"><g><path d="M 0.84375 -0.59375 C 0.832031 -0.707031 0.800781 -0.785156 0.75 -0.828125 C 0.695312 -0.878906 0.628906 -0.90625 0.546875 -0.90625 C 0.460938 -0.90625 0.394531 -0.875 0.34375 -0.8125 C 0.289062 -0.757812 0.265625 -0.6875 0.265625 -0.59375 Z M 1 -0.328125 C 0.976562 -0.210938 0.925781 -0.125 0.84375 -0.0625 C 0.769531 0 0.671875 0.03125 0.546875 0.03125 C 0.398438 0.03125 0.285156 -0.015625 0.203125 -0.109375 C 0.117188 -0.203125 0.078125 -0.328125 0.078125 -0.484375 C 0.078125 -0.660156 0.117188 -0.800781 0.203125 -0.90625 C 0.296875 -1.007812 0.421875 -1.0625 0.578125 -1.0625 C 0.710938 -1.0625 0.816406 -1.007812 0.890625 -0.90625 C 0.972656 -0.800781 1.015625 -0.648438 1.015625 -0.453125 L 0.265625 -0.453125 C 0.265625 -0.347656 0.285156 -0.265625 0.328125 -0.203125 C 0.378906 -0.148438 0.457031 -0.125 0.5625 -0.125 C 0.632812 -0.125 0.695312 -0.144531 0.75 -0.1875 C 0.800781 -0.226562 0.828125 -0.273438 0.828125 -0.328125 Z M 1 -0.328125 "/></g></g><g transform="translate(74.921658, 23.346103)"><g><path d="M 0.78125 -0.6875 C 0.75 -0.832031 0.664062 -0.90625 0.53125 -0.90625 C 0.445312 -0.90625 0.378906 -0.867188 0.328125 -0.796875 C 0.273438 -0.734375 0.25 -0.640625 0.25 -0.515625 C 0.25 -0.378906 0.269531 -0.28125 0.3125 -0.21875 C 0.363281 -0.15625 0.4375 -0.125 0.53125 -0.125 C 0.59375 -0.125 0.644531 -0.144531 0.6875 -0.1875 C 0.738281 -0.226562 0.769531 -0.285156 0.78125 -0.359375 L 0.953125 -0.359375 C 0.929688 -0.234375 0.882812 -0.132812 0.8125 -0.0625 C 0.738281 0 0.644531 0.03125 0.53125 0.03125 C 0.394531 0.03125 0.28125 -0.015625 0.1875 -0.109375 C 0.101562 -0.203125 0.0625 -0.328125 0.0625 -0.484375 C 0.0625 -0.660156 0.101562 -0.800781 0.1875 -0.90625 C 0.28125 -1.007812 0.40625 -1.0625 0.5625 -1.0625 C 0.675781 -1.0625 0.765625 -1.023438 0.828125 -0.953125 C 0.898438 -0.890625 0.941406 -0.800781 0.953125 -0.6875 Z M 0.78125 -0.6875 "/></g></g><g transform="translate(75.934732, 23.346103)"><g><path d="M 0.96875 0 L 0.796875 0 L 0.796875 -0.671875 C 0.796875 -0.753906 0.78125 -0.8125 0.75 -0.84375 C 0.71875 -0.882812 0.664062 -0.90625 0.59375 -0.90625 C 0.5 -0.90625 0.425781 -0.875 0.375 -0.8125 C 0.320312 -0.757812 0.296875 -0.675781 0.296875 -0.5625 L 0.296875 0 L 0.125 0 L 0.125 -1.40625 L 0.296875 -1.40625 L 0.296875 -0.890625 L 0.3125 -0.890625 C 0.382812 -1.003906 0.484375 -1.0625 0.609375 -1.0625 C 0.722656 -1.0625 0.8125 -1.03125 0.875 -0.96875 C 0.9375 -0.90625 0.96875 -0.816406 0.96875 -0.703125 Z M 0.96875 0 "/></g></g></g><g clip-path="url(#fbb79ed776)"><path fill="#ffffff" d="M 20.710938 5.128906 C 20.710938 4.375 21.320312 3.761719 22.074219 3.761719 L 24.90625 3.761719 C 25.660156 3.761719 26.273438 4.375 26.273438 5.128906 L 26.273438 8.929688 L 27.125 8.929688 L 27.125 5.128906 C 27.125 3.902344 26.128906 2.90625 24.90625 2.90625 L 22.074219 2.90625 C 20.851562 2.90625 19.851562 3.902344 19.851562 5.128906 L 19.851562 8.929688 L 20.710938 8.929688 Z M 20.710938 5.128906 " fill-opacity="1" fill-rule="nonzero"/></g><path fill="#ffffff" d="M 29.886719 14.152344 L 29.886719 11.679688 C 29.886719 10.503906 28.921875 9.535156 27.746094 9.535156 L 19.230469 9.535156 C 18.054688 9.535156 17.089844 10.503906 17.089844 11.679688 L 17.089844 19.46875 C 16.328125 19.527344 15.671875 19.480469 15.152344 19.328125 C 14.777344 19.214844 14.472656 19.039062 14.253906 18.808594 C 13.28125 17.757812 14.5625 15.511719 16.765625 14.378906 L 16.765625 13.589844 C 13.164062 15.4375 12.070312 18.289062 14.03125 19.671875 C 14.675781 20.121094 15.746094 20.269531 17.082031 20.144531 C 20.472656 19.820312 25.59375 17.738281 29.882812 14.402344 C 30.628906 13.820312 31.351562 13.199219 32.035156 12.546875 C 31.957031 12.617188 31.226562 13.25 29.886719 14.152344 Z M 29.886719 14.152344 " fill-opacity="1" fill-rule="nonzero"/><g clip-path="url(#4c23ccd7b2)"><path fill="#ffffff" d="M 37.273438 7.816406 C 37.058594 7.601562 36.714844 7.601562 36.5 7.816406 L 35.28125 9.03125 L 34.265625 8.792969 L 34.59375 8.464844 L 34.21875 8.292969 L 33.828125 8.683594 L 33.199219 8.535156 L 33.574219 8.160156 L 33.183594 8.003906 L 32.765625 8.425781 L 31.984375 8.242188 L 31.566406 8.65625 L 34.210938 10.167969 L 32.671875 11.941406 L 31.46875 11.542969 L 31.203125 11.8125 L 32.507812 12.585938 L 33.28125 13.890625 L 33.550781 13.625 L 33.15625 12.421875 L 34.917969 10.890625 L 36.421875 13.539062 L 36.835938 13.121094 L 36.652344 12.339844 L 37.074219 11.917969 L 36.917969 11.53125 L 36.542969 11.90625 L 36.394531 11.277344 L 36.785156 10.886719 L 36.617188 10.511719 L 36.289062 10.839844 L 36.046875 9.824219 L 37.261719 8.605469 C 37.484375 8.378906 37.484375 8.03125 37.273438 7.816406 Z M 37.273438 7.816406 " fill-opacity="1" fill-rule="nonzero"/></g><g clip-path="url(#6b0d67ec21)"><path fill="#ffffff" d="M 17.089844 22.046875 C 14.6875 22.363281 12.859375 21.644531 12.230469 19.328125 C 12.394531 21.355469 13.871094 23.074219 17.089844 22.632812 L 17.089844 23.984375 C 17.089844 25.160156 18.054688 26.125 19.230469 26.125 L 27.746094 26.125 C 28.921875 26.125 29.886719 25.160156 29.886719 23.984375 L 29.886719 15.664062 C 30.839844 14.820312 31.675781 13.964844 32.351562 13.125 C 31.597656 13.855469 30.765625 14.589844 29.886719 15.308594 C 25.851562 18.617188 20.796875 21.566406 17.089844 22.046875 Z M 17.089844 22.046875 " fill-opacity="1" fill-rule="nonzero"/></g></svg>